P2
# a straight line of slope 2/3
4 3
255
  0 255 255 255
  0   0 255 255
  0   0   0   0

